<svg x="0px" y="0px" width="100%" height="100%" viewBox="0 0 165.774 197.826"
     enable-background="new 0 0 165.774 197.826">
    <g fill="currentColor">
        <path fill="currentColor"
              d="M158.903,94.998L24.541,2.75c-7.14-4.9-16.889-3.07-21.789,4.046c-4.899,7.137-3.078,16.895,4.05,21.798   l112.648,77.838l-90.363,49.234v-47.938h24.581L1.335,39.564v50.134v19.201v73.252c0,5.54,1.857,10.669,6.637,13.49   c2.461,1.459,4.688,2.185,7.441,2.185c2.593,0,4.935-0.643,7.288-1.941l135.008-74.232c4.774-2.621,7.768-7.521,8.047-12.959   C166.019,103.271,163.386,98.082,158.903,94.998"/>
    </g>
</svg>
